<svg xmlns="http://www.w3.org/2000/svg" version="1.1" xmlns:xlink="http://www.w3.org/1999/xlink" xmlns:svgjs="http://svgjs.dev/svgjs" width="2000" height="1500" viewBox="0 0 2000 1500"><rect width="2000" height="1500" fill="#010536"></rect><g transform="matrix(0.75,0,0,0.75,248.15336134453764,500.10518697478983)"><svg viewBox="0 0 357 119" data-background-color="#010536" preserveAspectRatio="xMidYMid meet" height="666" width="2000" xmlns="http://www.w3.org/2000/svg" xmlns:xlink="http://www.w3.org/1999/xlink"><g id="tight-bounds" transform="matrix(1,0,0,1,0.43950000000003797,0.03450000000000841)"><svg viewBox="0 0 356.12052 118.93075176129513" height="118.93075176129513" width="356.12052"><g><svg viewBox="0 0 356.12052 118.93075176129513" height="118.93075176129513" width="356.12052"><g><svg viewBox="0 0 356.12052 118.93075176129513" height="118.93075176129513" width="356.12052"><g><path d="M0 118.931v-118.931h356.121v118.931z" fill="#fbfbf8" stroke="transparent" stroke-width="0" rx="0%" data-fill-palette-color="tertiary"></path><path d="M3.283 115.647v-112.364h349.554v112.364z" fill="#010536" stroke="transparent" stroke-width="0" rx="0%" data-fill-palette-color="quaternary"></path><path d="M9.85 109.081v-99.231h336.421v99.231z" fill="#fbfbf8" stroke="transparent" stroke-width="0" data-fill-palette-color="tertiary"></path></g><g transform="matrix(1,0,0,1,19.69974,19.69974)" id="textblocktransform"><svg viewBox="0 0 316.72104 79.53127176129513" height="79.53127176129513" width="316.72104" id="textblock"><g><svg viewBox="0 0 316.72104 45.09560677459526" height="45.09560677459526" width="316.72104"><g transform="matrix(1,0,0,1,0,0)"><svg width="316.72104" viewBox="1.9 -33.9 240.88 34.3" height="45.09560677459526" data-palette-color="#010536"><path d="M18.65-18.85L18.65-18.85Q18.65-17.55 18.05-17.03 17.45-16.5 16.8-16.5L16.8-16.5Q16-16.5 15.3-17.2 14.6-17.9 13.95-18.3L13.95-18.3Q13.15-18.85 12.65-19.05 12.15-19.25 11.2-19.25L11.2-19.25Q9.9-19.25 8.63-18.28 7.35-17.3 6.53-15.5 5.7-13.7 5.7-11.1L5.7-11.1Q5.7-6.85 8-4.85 10.3-2.85 13.6-2.85L13.6-2.85Q15.65-2.85 16.98-3.8 18.3-4.75 18.8-5.3L18.8-5.3Q18.85-5.3 19.03-5.13 19.2-4.95 19.2-4.65L19.2-4.65Q19.2-4.25 18.9-3.75L18.9-3.75Q18.45-3.05 17.5-2.08 16.55-1.1 15.1-0.35 13.65 0.4 11.75 0.4L11.75 0.4Q8.8 0.4 6.58-1 4.35-2.4 3.13-4.65 1.9-6.9 1.9-9.45L1.9-9.45Q1.9-12.15 3.03-14.33 4.15-16.5 5.93-18.1 7.7-19.7 9.78-20.55 11.85-21.4 13.75-21.4L13.75-21.4Q16.45-21.4 18.15-20.2L18.15-20.2Q18.3-20.05 18.48-19.65 18.65-19.25 18.65-18.85ZM33.05-21.45L33.05-21.45Q36.3-21.45 38.62-20.05 40.95-18.65 42.22-16.25 43.5-13.85 43.5-10.8L43.5-10.8Q43.5-7.65 42.15-5.13 40.8-2.6 38.45-1.13 36.1 0.35 33.15 0.35L33.15 0.35Q29.95 0.35 27.57-1.07 25.2-2.5 23.92-4.93 22.65-7.35 22.65-10.4L22.65-10.4Q22.65-13.55 24.02-16.05 25.4-18.55 27.75-20 30.1-21.45 33.05-21.45ZM32.5-19.8L32.5-19.8Q30.45-19.8 29.2-18.57 27.95-17.35 27.4-15.43 26.85-13.5 26.85-11.4L26.85-11.4Q26.85-9.05 27.62-6.7 28.4-4.35 29.92-2.8 31.45-1.25 33.65-1.25L33.65-1.25Q35.75-1.25 36.97-2.48 38.2-3.7 38.75-5.65 39.3-7.6 39.3-9.65L39.3-9.65Q39.3-12.05 38.5-14.38 37.7-16.7 36.2-18.25 34.7-19.8 32.5-19.8ZM59.05-21.4L59.05-21.4Q59.85-21.4 60.95-21.23 62.05-21.05 62.4-20.9L62.4-20.9Q62.65-20.9 62.65-21.9L62.65-21.9 62.65-27.25Q62.65-27.8 62.62-28.58 62.6-29.35 62.4-29.8L62.4-29.8Q62.2-30.35 61.3-30.5 60.4-30.65 59.4-30.65L59.4-30.65Q59.35-30.65 59.32-31.28 59.3-31.9 59.45-31.95L59.45-31.95Q61.3-32.15 63.07-32.68 64.84-33.2 66.4-33.9L66.4-33.9Q66.59-33.9 66.77-33.63 66.95-33.35 66.95-33.1L66.95-33.1Q66.95-33.1 66.67-32 66.4-30.9 66.4-28.85L66.4-28.85 66.4-7.95Q66.4-6.55 66.47-5.13 66.55-3.7 66.75-3.15L66.75-3.15Q67-2.6 67.92-2.48 68.84-2.35 69.34-2.3L69.34-2.3Q69.55-2.3 69.59-2.3L69.59-2.3Q69.7-2.25 69.72-2.02 69.75-1.8 69.75-1.7L69.75-1.7Q69.75-1.65 69.67-1.33 69.59-1 69.4-1L69.4-1Q68.15-0.95 66.67-0.6 65.2-0.25 64.15 0.08 63.1 0.4 63.05 0.4L63.05 0.4Q62.85 0.4 62.75 0.05 62.65-0.3 62.65-0.55L62.65-0.55 62.65-2.25Q62.65-2.7 62.5-2.55L62.5-2.55Q62.15-2.15 61.02-1.45 59.9-0.75 58.55-0.18 57.2 0.4 56 0.4L56 0.4Q53.8 0.4 51.82-0.98 49.85-2.35 48.62-4.73 47.4-7.1 47.4-10.05L47.4-10.05Q47.4-12.45 48.57-14.53 49.75-16.6 51.57-18.13 53.4-19.65 55.4-20.53 57.4-21.4 59.05-21.4ZM57.45-19.35L57.45-19.35Q55.6-19.35 54.27-18.18 52.95-17 52.22-15.15 51.5-13.3 51.5-11.25L51.5-11.25Q51.5-8.95 52.3-7 53.1-5.05 54.65-3.85 56.2-2.65 58.4-2.65L58.4-2.65Q60.05-2.65 61.35-3.33 62.65-4 62.65-4.6L62.65-4.6 62.65-16.95Q62.65-17.8 61.07-18.57 59.5-19.35 57.45-19.35ZM75.99-12.1L75.99-12.1Q75.94-9 77.04-6.9 78.14-4.8 79.99-3.78 81.84-2.75 83.99-2.75L83.99-2.75Q85.34-2.75 86.44-3.23 87.54-3.7 88.29-4.33 89.04-4.95 89.34-5.3L89.34-5.3Q89.39-5.3 89.57-5.13 89.74-4.95 89.74-4.65L89.74-4.65Q89.74-4.25 89.44-3.75L89.44-3.75Q88.99-3.05 88.04-2.08 87.09-1.1 85.64-0.35 84.19 0.4 82.29 0.4L82.29 0.4Q79.44 0.4 77.24-0.95 75.04-2.3 73.79-4.6 72.54-6.9 72.54-9.75L72.54-9.75Q72.54-12.2 73.42-14.33 74.29-16.45 75.72-18.03 77.14-19.6 78.84-20.5 80.54-21.4 82.14-21.4L82.14-21.4Q84.34-21.4 85.77-20.65 87.19-19.9 88.02-18.8 88.84-17.7 89.17-16.6 89.49-15.5 89.49-14.75L89.49-14.75Q89.49-13.7 89.24-13.1 88.99-12.5 88.29-12.45L88.29-12.45Q87.84-12.4 86.52-12.38 85.19-12.35 83.49-12.3 81.79-12.25 80.14-12.2 78.49-12.15 77.34-12.13 76.19-12.1 75.99-12.1ZM76.24-13.9L76.24-13.9 84.19-13.9Q84.64-13.9 84.97-14.15 85.29-14.4 85.34-15.05L85.34-15.05Q85.39-15.65 84.99-16.75 84.59-17.85 83.72-18.75 82.84-19.65 81.34-19.65L81.34-19.65Q79.79-19.65 78.79-18.78 77.79-17.9 77.22-16.78 76.64-15.65 76.42-14.78 76.19-13.9 76.24-13.9ZM121.74-21.4L121.74-21.4Q123.94-21.4 125.31-20.48 126.69-19.55 127.29-17.35L127.29-17.35Q128.89-18.8 130.81-20.1 132.74-21.4 134.49-21.4L134.49-21.4Q137.14-21.4 138.49-20.3 139.84-19.2 140.31-16.9 140.79-14.6 140.79-11.05L140.79-11.05 140.79-5.65Q140.79-4.55 140.81-3.6 140.84-2.65 141.04-2.05L141.04-2.05Q141.14-1.8 141.76-1.6 142.39-1.4 143.09-1.33 143.79-1.25 144.09-1.25L144.09-1.25Q144.24-1.05 144.26-0.55 144.29-0.05 144.09 0.15L144.09 0.15Q142.59 0.05 141.46-0.03 140.34-0.1 138.89-0.1L138.89-0.1Q137.49-0.1 136.34-0.03 135.19 0.05 133.69 0.15L133.69 0.15Q133.49-0.05 133.51-0.55 133.54-1.05 133.69-1.25L133.69-1.25Q133.99-1.25 134.71-1.33 135.44-1.4 136.09-1.6 136.74-1.8 136.79-2.05L136.79-2.05Q136.94-2.55 136.96-3.33 136.99-4.1 136.99-5.05L136.99-5.05Q136.99-5.2 136.99-5.35 136.99-5.5 136.99-5.65L136.99-5.65 136.99-10.9Q136.99-13.35 136.66-15.05 136.34-16.75 135.39-17.65 134.44-18.55 132.44-18.55L132.44-18.55Q131.24-18.55 130.14-17.93 129.04-17.3 128.34-16.63 127.64-15.95 127.64-15.75L127.64-15.75Q127.64-15.7 127.66-15.48 127.69-15.25 127.69-15.15L127.69-15.15Q127.79-14.45 127.84-13.4 127.89-12.35 127.89-11.65L127.89-11.65 127.89-5.65Q127.89-4.55 127.91-3.6 127.94-2.65 128.14-2.05L128.14-2.05Q128.24-1.8 128.86-1.6 129.49-1.4 130.19-1.33 130.89-1.25 131.19-1.25L131.19-1.25Q131.34-1.05 131.36-0.55 131.39-0.05 131.19 0.15L131.19 0.15Q129.69 0.05 128.56-0.03 127.44-0.1 125.99-0.1L125.99-0.1Q124.59-0.1 123.44-0.03 122.29 0.05 120.79 0.15L120.79 0.15Q120.59-0.05 120.61-0.55 120.64-1.05 120.79-1.25L120.79-1.25Q121.09-1.25 121.81-1.33 122.54-1.4 123.19-1.6 123.84-1.8 123.89-2.05L123.89-2.05Q124.09-2.65 124.11-3.6 124.14-4.55 124.14-5.65L124.14-5.65 124.14-10.65Q124.14-15.1 123.16-16.82 122.19-18.55 119.54-18.55L119.54-18.55Q118.44-18.55 117.39-18 116.34-17.45 115.66-16.82 114.99-16.2 114.99-15.85L114.99-15.85 114.99-5.65Q114.99-4.55 115.01-3.6 115.04-2.65 115.24-2.05L115.24-2.05Q115.34-1.8 115.96-1.6 116.59-1.4 117.29-1.33 117.99-1.25 118.29-1.25L118.29-1.25Q118.44-1.05 118.46-0.55 118.49-0.05 118.29 0.15L118.29 0.15Q116.79 0.05 115.66-0.03 114.54-0.1 113.09-0.1L113.09-0.1Q111.69-0.1 110.54-0.03 109.39 0.05 107.89 0.15L107.89 0.15Q107.69-0.05 107.71-0.55 107.74-1.05 107.89-1.25L107.89-1.25Q108.19-1.25 108.91-1.33 109.64-1.4 110.29-1.6 110.94-1.8 110.99-2.05L110.99-2.05Q111.19-2.65 111.21-3.6 111.24-4.55 111.24-5.65L111.24-5.65 111.24-14.55Q111.24-15.05 111.21-15.95 111.19-16.85 110.99-17.3L110.99-17.3Q110.84-17.75 110.14-17.93 109.44-18.1 108.74-18.13 108.04-18.15 107.84-18.15L107.84-18.15Q107.79-18.25 107.74-18.75 107.69-19.25 107.84-19.45L107.84-19.45Q109.74-19.7 111.54-20.2 113.34-20.7 114.79-21.5L114.79-21.5Q114.99-21.5 115.16-21.2 115.34-20.9 115.34-20.7L115.34-20.7Q115.34-20.55 115.26-20 115.19-19.45 115.11-18.9 115.04-18.35 115.04-18.15L115.04-18.15Q115.04-17.95 115.14-17.95L115.14-17.95Q115.19-17.95 115.29-18.05L115.29-18.05Q115.89-18.6 116.89-19.38 117.89-20.15 119.16-20.78 120.44-21.4 121.74-21.4ZM156.44-21.3L156.44-21.3Q157.84-21.3 159.06-20.4 160.29-19.5 161.04-18 161.79-16.5 161.79-14.6L161.79-14.6 161.79-4.55Q161.79-3.6 162.14-2.93 162.49-2.25 163.29-2.25L163.29-2.25Q163.99-2.25 164.39-2.55 164.79-2.85 164.89-2.9L164.89-2.9Q164.99-2.9 165.04-2.75 165.09-2.6 165.09-2.5L165.09-2.5Q165.09-1.95 164.84-1.55L164.84-1.55Q164.54-1.3 163.86-0.85 163.19-0.4 162.46-0.05 161.74 0.3 161.19 0.3L161.19 0.3Q160.14 0.3 159.31-0.75 158.49-1.8 158.24-2.9L158.24-2.9Q158.04-2.7 157.31-2.15 156.59-1.6 155.64-1.03 154.69-0.45 153.76-0.03 152.84 0.4 152.19 0.4L152.19 0.4Q149.79 0.4 148.14-1.23 146.49-2.85 146.49-5.2L146.49-5.2Q146.49-6.7 147.31-7.78 148.14-8.85 148.94-9.15L148.94-9.15Q150.34-9.65 152.06-10.23 153.79-10.8 155.29-11.35 156.79-11.9 157.49-12.2L157.49-12.2Q157.89-12.35 157.99-12.58 158.09-12.8 158.09-13.45L158.09-13.45 158.09-14.75Q158.09-15.85 157.54-16.93 156.99-18 156.04-18.73 155.09-19.45 153.89-19.45L153.89-19.45Q152.64-19.45 152.04-18.65 151.44-17.85 151.19-16.4L151.19-16.4Q150.74-14.05 148.89-14.05L148.89-14.05Q148.09-14.05 147.66-14.7 147.24-15.35 147.24-16.1L147.24-16.1Q147.24-16.25 147.34-16.68 147.44-17.1 147.59-17.3L147.59-17.3Q148.34-18 149.74-18.95 151.14-19.9 152.91-20.6 154.69-21.3 156.44-21.3ZM153.84-2.25L153.84-2.25Q154.69-2.25 155.69-2.65 156.69-3.05 157.39-3.53 158.09-4 158.09-4.25L158.09-4.25 158.09-10.9Q157.14-10.6 155.69-10.15 154.24-9.7 153.54-9.45L153.54-9.45Q152.24-8.95 151.39-8 150.54-7.05 150.54-5.65L150.54-5.65Q150.54-4.3 151.49-3.28 152.44-2.25 153.84-2.25ZM180.48-21.35L180.48-21.35Q181.43-21.35 182.28-20.93 183.13-20.5 183.48-19.9L183.48-19.9Q183.58-19.7 183.63-19.35 183.68-19 183.68-18.6L183.68-18.6Q183.68-17.25 183.06-16.65 182.43-16.05 182.03-16.05L182.03-16.05Q181.53-16.05 181.08-16.4 180.63-16.75 180.23-17L180.23-17Q179.88-17.25 179.51-17.43 179.13-17.6 178.43-17.6L178.43-17.6Q177.38-17.6 176.51-16.73 175.63-15.85 175.08-14.8 174.53-13.75 174.53-13.2L174.53-13.2 174.53-5.65Q174.53-4.55 174.56-3.6 174.58-2.65 174.78-2.05L174.78-2.05Q174.88-1.8 175.78-1.6 176.68-1.4 177.68-1.33 178.68-1.25 178.98-1.25L178.98-1.25Q179.13-1.05 179.16-0.55 179.18-0.05 178.98 0.15L178.98 0.15Q177.48 0.05 175.93-0.03 174.38-0.1 172.93-0.1L172.93-0.1Q171.53-0.1 170.23-0.03 168.93 0.05 167.43 0.15L167.43 0.15Q167.23-0.05 167.26-0.55 167.28-1.05 167.43-1.25L167.43-1.25Q167.73-1.25 168.46-1.33 169.18-1.4 169.83-1.6 170.48-1.8 170.53-2.05L170.53-2.05Q170.73-2.65 170.76-3.6 170.78-4.55 170.78-5.65L170.78-5.65 170.78-14.75Q170.78-15.25 170.76-16.05 170.73-16.85 170.53-17.3L170.53-17.3Q170.38-17.75 169.68-17.93 168.98-18.1 168.28-18.13 167.58-18.15 167.38-18.15L167.38-18.15Q167.33-18.25 167.28-18.75 167.23-19.25 167.38-19.45L167.38-19.45Q169.28-19.7 171.08-20.2 172.88-20.7 174.33-21.5L174.33-21.5Q174.53-21.5 174.71-21.2 174.88-20.9 174.88-20.7L174.88-20.7Q174.88-20.55 174.78-19.55 174.68-18.55 174.61-17.53 174.53-16.5 174.53-16.2L174.53-16.2Q174.53-16.05 174.61-16.05 174.68-16.05 174.73-16.1L174.73-16.1Q175.23-17.15 176.16-18.38 177.08-19.6 178.23-20.48 179.38-21.35 180.48-21.35ZM192.48-9.95L192.48-5.65Q192.48-4.55 192.51-3.6 192.53-2.65 192.73-2.05L192.73-2.05Q192.83-1.8 193.46-1.6 194.08-1.4 194.81-1.33 195.53-1.25 195.83-1.25L195.83-1.25Q195.98-1.05 196.01-0.55 196.03-0.05 195.83 0.15L195.83 0.15Q194.33 0.05 193.18-0.03 192.03-0.1 190.58-0.1L190.58-0.1Q189.18-0.1 188.06-0.03 186.93 0.05 185.43 0.15L185.43 0.15Q185.23-0.05 185.26-0.55 185.28-1.05 185.43-1.25L185.43-1.25Q185.73-1.25 186.43-1.33 187.13-1.4 187.78-1.6 188.43-1.8 188.48-2.05L188.48-2.05Q188.68-2.65 188.71-3.6 188.73-4.55 188.73-5.65L188.73-5.65 188.73-27.25Q188.73-27.8 188.71-28.58 188.68-29.35 188.48-29.8L188.48-29.8Q188.28-30.35 187.41-30.5 186.53-30.65 185.53-30.65L185.53-30.65Q185.48-30.65 185.46-31.28 185.43-31.9 185.58-31.95L185.58-31.95Q187.43-32.15 189.18-32.68 190.93-33.2 192.48-33.9L192.48-33.9Q192.68-33.9 192.86-33.63 193.03-33.35 193.03-33.1L193.03-33.1Q193.03-33.1 192.76-32 192.48-30.9 192.48-28.85L192.48-28.85 192.48-11.45Q193.13-11.7 194.21-12.55 195.28-13.4 196.53-14.45L196.53-14.45Q198.43-16.05 199.71-17.1 200.98-18.15 200.98-18.5L200.98-18.5Q200.98-18.9 200.51-19.05 200.03-19.2 199.48-19.28 198.93-19.35 198.68-19.35L198.68-19.35Q198.48-19.6 198.51-20.15 198.53-20.7 198.73-20.75L198.73-20.75Q199.78-20.65 201.03-20.58 202.28-20.5 203.43-20.5L203.43-20.5Q205.98-20.5 207.73-20.75L207.73-20.75Q207.88-20.55 207.86-20.03 207.83-19.5 207.73-19.35L207.73-19.35Q207.23-19.35 206.01-19.05 204.78-18.75 203.98-18.2L203.98-18.2Q203.78-18.05 202.93-17.45 202.08-16.85 200.91-15.95 199.73-15.05 198.46-14.05 197.18-13.05 196.08-12.15L196.08-12.15Q197.93-10.2 199.73-8.18 201.53-6.15 202.93-4.63 204.33-3.1 204.88-2.6L204.88-2.6Q205.83-1.8 207.11-1.5 208.38-1.2 209.33-1.25L209.33-1.25Q209.43-1.15 209.46-0.73 209.48-0.3 209.38-0.1L209.38-0.1Q209.13 0 208.18 0.1 207.23 0.2 206.23 0.2L206.23 0.2Q204.08 0.2 202.43-0.58 200.78-1.35 200.23-1.95L200.23-1.95Q200.23-1.95 199.56-2.68 198.88-3.4 197.78-4.58 196.68-5.75 195.48-7.05 194.28-8.35 193.23-9.5L193.23-9.5Q193.08-9.7 192.78-9.83 192.48-9.95 192.48-9.95L192.48-9.95ZM212.88-12.1L212.88-12.1Q212.83-9 213.93-6.9 215.03-4.8 216.88-3.78 218.73-2.75 220.88-2.75L220.88-2.75Q222.23-2.75 223.33-3.23 224.43-3.7 225.18-4.33 225.93-4.95 226.23-5.3L226.23-5.3Q226.28-5.3 226.45-5.13 226.63-4.95 226.63-4.65L226.63-4.65Q226.63-4.25 226.33-3.75L226.33-3.75Q225.88-3.05 224.93-2.08 223.98-1.1 222.53-0.35 221.08 0.4 219.18 0.4L219.18 0.4Q216.33 0.4 214.13-0.95 211.93-2.3 210.68-4.6 209.43-6.9 209.43-9.75L209.43-9.75Q209.43-12.2 210.3-14.33 211.18-16.45 212.6-18.03 214.03-19.6 215.73-20.5 217.43-21.4 219.03-21.4L219.03-21.4Q221.23-21.4 222.65-20.65 224.08-19.9 224.9-18.8 225.73-17.7 226.05-16.6 226.38-15.5 226.38-14.75L226.38-14.75Q226.38-13.7 226.13-13.1 225.88-12.5 225.18-12.45L225.18-12.45Q224.73-12.4 223.4-12.38 222.08-12.35 220.38-12.3 218.68-12.25 217.03-12.2 215.38-12.15 214.23-12.13 213.08-12.1 212.88-12.1ZM213.13-13.9L213.13-13.9 221.08-13.9Q221.53-13.9 221.85-14.15 222.18-14.4 222.23-15.05L222.23-15.05Q222.28-15.65 221.88-16.75 221.48-17.85 220.6-18.75 219.73-19.65 218.23-19.65L218.23-19.65Q216.68-19.65 215.68-18.78 214.68-17.9 214.1-16.78 213.53-15.65 213.3-14.78 213.08-13.9 213.13-13.9ZM236.23-27.5L236.23-21.1 242.53-21.1Q242.78-21.1 242.78-20.55L242.78-20.55Q242.78-19.8 242.08-19.1L242.08-19.1 236.23-19.1 236.23-6.3Q236.23-2.3 239.48-2.3L239.48-2.3Q240.58-2.3 241.48-2.75 242.38-3.2 242.63-3.4L242.63-3.4Q242.78-3.35 242.78-3.1L242.78-3.1Q242.78-2.55 242.58-2.35L242.58-2.35Q242.23-1.95 241.5-1.3 240.78-0.65 239.78-0.15 238.78 0.35 237.58 0.35L237.58 0.35Q236.33 0.35 235.15-0.1 233.98-0.55 233.23-1.7 232.48-2.85 232.48-4.95L232.48-4.95 232.48-19.1 229.63-19.1Q229.53-19.1 229.48-19.28 229.43-19.45 229.43-19.55L229.43-19.55Q229.43-19.65 229.73-20.03 230.03-20.4 230.35-20.75 230.68-21.1 230.68-21.1L230.68-21.1 232.48-21.1 232.48-24.15Q232.98-24.7 233.65-25.43 234.33-26.15 234.88-26.78 235.43-27.4 235.48-27.45L235.48-27.45Q235.68-27.65 235.95-27.65 236.23-27.65 236.23-27.5L236.23-27.5Z" opacity="1" transform="matrix(1,0,0,1,0,0)" fill="#010536" class="wordmark-text-0" data-fill-palette-color="quaternary" id="text-0"></path></svg></g></svg></g><g transform="matrix(1,0,0,1,0,51.66218677459526)"><svg viewBox="0 0 316.72104 27.86908498669987" height="27.86908498669987" width="316.72104"><g transform="matrix(1,0,0,1,0,0)"><svg width="316.72104" viewBox="2.95 -31.5 423.33 37.25" height="27.86908498669987" data-palette-color="#010536"><path d="M8.95 0.35L8.95 0.35Q6.8 0.35 5.58-0.23 4.35-0.8 3.8-1.75 3.25-2.7 3.1-3.88 2.95-5.05 2.95-6.2L2.95-6.2 2.95-18.6Q2.95-20.15 3.3-21.65 3.65-23.15 4.93-24.15 6.2-25.15 8.95-25.15L8.95-25.15Q11.75-25.15 13-24.2 14.25-23.25 14.58-21.75 14.9-20.25 14.9-18.6L14.9-18.6 14.9-13.15 3.75-13.15 3.75-6.35Q3.75-4.9 4.03-3.53 4.3-2.15 5.4-1.3 6.5-0.45 8.95-0.45L8.95-0.45Q11.4-0.45 12.48-1.3 13.55-2.15 13.83-3.5 14.1-4.85 14.1-6.35L14.1-6.35 14.1-8.35 14.9-8.35 14.9-6.2Q14.9-4.65 14.6-3.15 14.3-1.65 13.05-0.65 11.8 0.35 8.95 0.35ZM3.75-18.15L3.75-13.95 14.1-13.95 14.1-18.15Q14.1-19.9 13.85-21.3 13.6-22.7 12.53-23.53 11.45-24.35 8.95-24.35L8.95-24.35Q6.75-24.35 5.63-23.58 4.5-22.8 4.13-21.43 3.75-20.05 3.75-18.15L3.75-18.15ZM33.11 0L32.21 0 26.21-24.75 27.01-24.75 32.66-1.35 38.36-24.75 39.16-24.75 33.11 0ZM56.58 0.35L56.58 0.35Q54.43 0.35 53.2-0.23 51.98-0.8 51.43-1.75 50.88-2.7 50.73-3.88 50.58-5.05 50.58-6.2L50.58-6.2 50.58-18.6Q50.58-20.15 50.93-21.65 51.28-23.15 52.55-24.15 53.83-25.15 56.58-25.15L56.58-25.15Q59.38-25.15 60.63-24.2 61.88-23.25 62.2-21.75 62.53-20.25 62.53-18.6L62.53-18.6 62.53-13.15 51.38-13.15 51.38-6.35Q51.38-4.9 51.65-3.53 51.93-2.15 53.03-1.3 54.13-0.45 56.58-0.45L56.58-0.45Q59.03-0.45 60.1-1.3 61.18-2.15 61.45-3.5 61.73-4.85 61.73-6.35L61.73-6.35 61.73-8.35 62.53-8.35 62.53-6.2Q62.53-4.65 62.23-3.15 61.93-1.65 60.68-0.65 59.43 0.35 56.58 0.35ZM51.38-18.15L51.38-13.95 61.73-13.95 61.73-18.15Q61.73-19.9 61.48-21.3 61.23-22.7 60.15-23.53 59.08-24.35 56.58-24.35L56.58-24.35Q54.38-24.35 53.25-23.58 52.13-22.8 51.75-21.43 51.38-20.05 51.38-18.15L51.38-18.15ZM77.34 0L76.54 0 76.54-24.75 77.24-24.75 77.34-22.25Q77.89-23.4 79.16-24.28 80.44-25.15 82.79-25.15L82.79-25.15Q83.84-25.15 84.64-25L84.64-25 84.64-24.2Q83.84-24.35 82.79-24.35L82.79-24.35Q80.04-24.35 78.69-22.9 77.34-21.45 77.34-19.45L77.34-19.45 77.34 0ZM95.25 5.75L95.25 5.75Q94.5 5.75 93.7 5.63 92.9 5.5 92.8 5.45L92.8 5.45 92.8 4.75Q92.9 4.8 93.65 4.93 94.4 5.05 95.25 5.05L95.25 5.05Q96.05 5.05 96.93 4.65 97.8 4.25 98.58 3.2 99.35 2.15 99.65 0.2L99.65 0.2 93.6-24.75 94.4-24.75 100.05-1.35 105.75-24.75 106.55-24.75 100.5 0.05Q99.85 2.65 98.68 4.2 97.5 5.75 95.25 5.75ZM122.31 0L122.31 0Q120.36 0 119.51-1.18 118.66-2.35 118.66-4.65L118.66-4.65 118.66-23.95 116.76-23.95 116.76-24.65 118.66-24.75 118.81-29.6 119.46-29.6 119.46-24.75 125.26-24.75 125.26-23.95 119.46-23.95 119.46-4.4Q119.46-3 120.01-1.88 120.56-0.75 122.26-0.75L122.26-0.75Q122.96-0.75 123.66-0.83 124.36-0.9 125.26-1L125.26-1 125.26-0.2Q124.91-0.15 124.09-0.08 123.26 0 122.31 0ZM137.83 0L137.03 0 137.03-31.5 137.83-31.5 137.83-22.25Q138.38-23.4 139.65-24.28 140.93-25.15 143.28-25.15L143.28-25.15Q145.38-25.15 146.6-24.58 147.83-24 148.38-23.03 148.93-22.05 149.08-20.9 149.23-19.75 149.23-18.6L149.23-18.6 149.23 0 148.43 0 148.43-18.15Q148.43-19.65 148.18-21.08 147.93-22.5 146.85-23.43 145.78-24.35 143.28-24.35L143.28-24.35Q140.53-24.35 139.28-22.98 138.03-21.6 137.83-19.45L137.83-19.45 137.83 0ZM164.24 0L163.44 0 163.44-24.75 164.24-24.75 164.24 0ZM163.84-28.3L163.84-28.3Q163.14-28.3 163.14-29L163.14-29Q163.14-29.7 163.84-29.7L163.84-29.7Q164.54-29.7 164.54-29L164.54-29Q164.54-28.3 163.84-28.3ZM179.6 0L178.8 0 178.8-24.75 179.5-24.75 179.6-22.15Q180.15-23.3 181.43-24.23 182.7-25.15 185.05-25.15L185.05-25.15Q187.15-25.15 188.38-24.58 189.6-24 190.15-23.03 190.7-22.05 190.85-20.9 191-19.75 191-18.6L191-18.6 191 0 190.2 0 190.2-18.15Q190.2-19.65 189.95-21.08 189.7-22.5 188.63-23.43 187.55-24.35 185.05-24.35L185.05-24.35Q182.3-24.35 180.95-22.85 179.6-21.35 179.6-19.2L179.6-19.2 179.6 0ZM210.62 5.75L210.62 5.75Q209.52 5.75 208.64 5.68 207.77 5.6 207.42 5.55L207.42 5.55 207.42 4.7Q208.77 4.95 210.62 4.95L210.62 4.95Q211.97 4.95 213.17 4.53 214.37 4.1 215.14 2.98 215.92 1.85 215.92-0.15L215.92-0.15 215.92-3.8Q215.52-2.8 214.14-1.95 212.77-1.1 210.72-1.1L210.72-1.1Q207.92-1.1 206.64-2.1 205.37-3.1 205.07-4.6 204.77-6.1 204.77-7.65L204.77-7.65 204.77-18.6Q204.77-19.75 204.92-20.9 205.07-22.05 205.62-23.03 206.17-24 207.39-24.58 208.62-25.15 210.72-25.15L210.72-25.15Q212.47-25.15 213.52-24.78 214.57-24.4 215.14-23.95 215.72-23.5 215.92-23.3L215.92-23.3 216.07-24.75 216.72-24.75 216.72-0.25Q216.72 2.6 215.22 4.17 213.72 5.75 210.62 5.75ZM210.72-1.9L210.72-1.9Q212.82-1.9 213.94-2.73 215.07-3.55 215.49-4.9 215.92-6.25 215.92-7.8L215.92-7.8 215.92-21.85Q215.77-22.2 215.34-22.78 214.92-23.35 213.84-23.85 212.77-24.35 210.72-24.35L210.72-24.35Q208.77-24.35 207.72-23.8 206.67-23.25 206.22-22.38 205.77-21.5 205.67-20.48 205.57-19.45 205.57-18.45L205.57-18.45 205.57-7.8Q205.57-6.8 205.67-5.78 205.77-4.75 206.22-3.88 206.67-3 207.72-2.45 208.77-1.9 210.72-1.9ZM246.04 5.75L246.04 5.75Q245.29 5.75 244.49 5.63 243.69 5.5 243.59 5.45L243.59 5.45 243.59 4.75Q243.69 4.8 244.44 4.93 245.19 5.05 246.04 5.05L246.04 5.05Q246.84 5.05 247.72 4.65 248.59 4.25 249.37 3.2 250.14 2.15 250.44 0.2L250.44 0.2 244.39-24.75 245.19-24.75 250.84-1.35 256.54-24.75 257.34-24.75 251.29 0.05Q250.64 2.65 249.47 4.2 248.29 5.75 246.04 5.75ZM274.75 0.35L274.75 0.35Q272.6 0.35 271.38-0.23 270.15-0.8 269.6-1.75 269.05-2.7 268.9-3.88 268.75-5.05 268.75-6.2L268.75-6.2 268.75-18.6Q268.75-19.75 268.9-20.9 269.05-22.05 269.63-23.03 270.2-24 271.45-24.58 272.7-25.15 274.95-25.15L274.95-25.15Q277.7-25.15 278.95-24.15 280.2-23.15 280.58-21.65 280.95-20.15 280.95-18.6L280.95-18.6 280.95-6.2Q280.95-4.65 280.58-3.15 280.2-1.65 278.9-0.65 277.6 0.35 274.75 0.35ZM274.75-0.45L274.75-0.45Q277.35-0.45 278.48-1.38 279.6-2.3 279.88-3.68 280.15-5.05 280.15-6.35L280.15-6.35 280.15-18.45Q280.15-19.8 279.88-21.15 279.6-22.5 278.53-23.43 277.45-24.35 274.95-24.35L274.95-24.35Q272.95-24.35 271.83-23.8 270.7-23.25 270.23-22.38 269.75-21.5 269.65-20.48 269.55-19.45 269.55-18.45L269.55-18.45 269.55-6.35Q269.55-5.35 269.65-4.33 269.75-3.3 270.2-2.43 270.65-1.55 271.73-1 272.8-0.45 274.75-0.45ZM301.02 0.4L301.02 0.4Q298.92 0.4 297.69-0.18 296.47-0.75 295.92-1.73 295.37-2.7 295.22-3.85 295.07-5 295.07-6.15L295.07-6.15 295.07-24.75 295.87-24.75 295.87-6.6Q295.87-5.15 296.12-3.7 296.37-2.25 297.44-1.33 298.52-0.4 301.02-0.4L301.02-0.4Q303.77-0.4 305.02-1.78 306.27-3.15 306.47-5.3L306.47-5.3 306.47-24.75 307.27-24.75 307.27 0 306.57 0 306.47-2.5Q305.92-1.35 304.64-0.48 303.37 0.4 301.02 0.4ZM338.14 0L337.34 0 337.34-24.75 338.04-24.75 338.14-22.15Q338.69-23.3 339.97-24.23 341.24-25.15 343.59-25.15L343.59-25.15Q345.69-25.15 346.92-24.58 348.14-24 348.69-23.03 349.24-22.05 349.39-20.9 349.54-19.75 349.54-18.6L349.54-18.6 349.54 0 348.74 0 348.74-18.15Q348.74-19.65 348.49-21.08 348.24-22.5 347.17-23.43 346.09-24.35 343.59-24.35L343.59-24.35Q340.84-24.35 339.49-22.85 338.14-21.35 338.14-19.2L338.14-19.2 338.14 0ZM369.31 0.35L369.31 0.35Q367.16 0.35 365.93-0.23 364.71-0.8 364.16-1.75 363.61-2.7 363.46-3.88 363.31-5.05 363.31-6.2L363.31-6.2 363.31-18.6Q363.31-20.15 363.66-21.65 364.01-23.15 365.28-24.15 366.56-25.15 369.31-25.15L369.31-25.15Q372.11-25.15 373.36-24.2 374.61-23.25 374.93-21.75 375.26-20.25 375.26-18.6L375.26-18.6 375.26-13.15 364.11-13.15 364.11-6.35Q364.11-4.9 364.38-3.53 364.66-2.15 365.76-1.3 366.86-0.45 369.31-0.45L369.31-0.45Q371.76-0.45 372.83-1.3 373.91-2.15 374.18-3.5 374.46-4.85 374.46-6.35L374.46-6.35 374.46-8.35 375.26-8.35 375.26-6.2Q375.26-4.65 374.96-3.15 374.66-1.65 373.41-0.65 372.16 0.35 369.31 0.35ZM364.11-18.15L364.11-13.95 374.46-13.95 374.46-18.15Q374.46-19.9 374.21-21.3 373.96-22.7 372.88-23.53 371.81-24.35 369.31-24.35L369.31-24.35Q367.11-24.35 365.98-23.58 364.86-22.8 364.48-21.43 364.11-20.05 364.11-18.15L364.11-18.15ZM394.82 0.35L394.82 0.35Q392.67 0.35 391.44-0.23 390.22-0.8 389.67-1.75 389.12-2.7 388.97-3.88 388.82-5.05 388.82-6.2L388.82-6.2 388.82-18.6Q388.82-20.15 389.17-21.65 389.52-23.15 390.79-24.15 392.07-25.15 394.82-25.15L394.82-25.15Q397.62-25.15 398.87-24.2 400.12-23.25 400.44-21.75 400.77-20.25 400.77-18.6L400.77-18.6 400.77-13.15 389.62-13.15 389.62-6.35Q389.62-4.9 389.89-3.53 390.17-2.15 391.27-1.3 392.37-0.45 394.82-0.45L394.82-0.45Q397.27-0.45 398.34-1.3 399.42-2.15 399.69-3.5 399.97-4.85 399.97-6.35L399.97-6.35 399.97-8.35 400.77-8.35 400.77-6.2Q400.77-4.65 400.47-3.15 400.17-1.65 398.92-0.65 397.67 0.35 394.82 0.35ZM389.62-18.15L389.62-13.95 399.97-13.95 399.97-18.15Q399.97-19.9 399.72-21.3 399.47-22.7 398.39-23.53 397.32-24.35 394.82-24.35L394.82-24.35Q392.62-24.35 391.49-23.58 390.37-22.8 389.99-21.43 389.62-20.05 389.62-18.15L389.62-18.15ZM420.28 0.35L420.28 0.35Q417.48 0.35 416.21-0.65 414.93-1.65 414.63-3.15 414.33-4.65 414.33-6.2L414.33-6.2 414.33-18.6Q414.33-19.75 414.48-20.9 414.63-22.05 415.18-23.03 415.73-24 416.96-24.58 418.18-25.15 420.28-25.15L420.28-25.15Q422.03-25.15 423.08-24.78 424.13-24.4 424.71-23.95 425.28-23.5 425.48-23.3L425.48-23.3 425.48-31.5 426.28-31.5 426.28 0 425.63 0 425.53-2.5Q425.18-1.45 423.78-0.55 422.38 0.35 420.28 0.35ZM420.28-0.45L420.28-0.45Q422.38-0.45 423.51-1.28 424.63-2.1 425.06-3.45 425.48-4.8 425.48-6.35L425.48-6.35 425.48-21.85Q425.33-22.2 424.91-22.78 424.48-23.35 423.41-23.85 422.33-24.35 420.28-24.35L420.28-24.35Q418.33-24.35 417.28-23.8 416.23-23.25 415.78-22.38 415.33-21.5 415.23-20.48 415.13-19.45 415.13-18.45L415.13-18.45 415.13-6.35Q415.13-5.35 415.23-4.33 415.33-3.3 415.78-2.43 416.23-1.55 417.28-1 418.33-0.45 420.28-0.45Z" opacity="1" transform="matrix(1,0,0,1,0,0)" fill="#010536" class="slogan-text-1" data-fill-palette-color="quaternary" id="text-1"></path></svg></g></svg></g></svg></g></svg></g><g></g></svg></g><defs></defs></svg><rect width="356.12052" height="118.93075176129513" fill="none" stroke="none" visibility="hidden"></rect></g></svg></g></svg>