<?xml version="1.0" standalone="no"?>
<!DOCTYPE svg PUBLIC "-//W3C//DTD SVG 20010904//EN"
 "http://www.w3.org/TR/2001/REC-SVG-20010904/DTD/svg10.dtd">
<svg version="1.0" xmlns="http://www.w3.org/2000/svg"
 width="200.000000pt" height="200.000000pt" viewBox="0 0 200.000000 200.000000"
 preserveAspectRatio="xMidYMid meet">

<g transform="translate(0.000000,200.000000) scale(0.100000,-0.100000)"
fill="#000000" stroke="none">
<path d="M607 1632 c-16 -17 -16 -44 -6 -308 5 -159 12 -299 15 -311 11 -53
20 -54 399 -23 322 26 351 30 366 49 18 22 18 21 3 348 -5 96 -9 125 -23 137
-16 15 -642 126 -709 126 -16 0 -36 -8 -45 -18z m410 -72 c180 -27 330 -53
334 -57 4 -5 10 -108 14 -230 6 -183 5 -224 -6 -227 -34 -11 -665 -34 -674
-25 -9 9 -36 565 -28 582 6 11 12 10 360 -43z"/>
<path d="M763 1528 c-19 -25 -21 -47 -14 -215 5 -118 11 -176 20 -187 12 -14
49 -16 282 -16 327 0 302 -15 293 170 -7 154 -9 167 -35 181 -17 9 -481 79
-525 79 -6 0 -16 -6 -21 -12z"/>
<path d="M1065 970 c-116 -14 -203 -30 -195 -33 35 -16 117 -37 142 -37 22 0
205 39 261 56 16 5 25 45 10 43 -5 -1 -102 -14 -218 -29z"/>
<path d="M600 699 c0 -29 -2 -30 -29 -24 -50 11 -71 -8 -71 -63 0 -26 4 -52 8
-58 14 -20 45 -25 68 -9 13 9 24 11 24 5 0 -5 7 -10 15 -10 12 0 15 17 15 95
0 78 -3 95 -15 95 -10 0 -15 -10 -15 -31z m0 -88 c0 -37 -11 -51 -40 -51 -16
0 -31 39 -24 65 5 19 13 25 35 25 27 0 29 -3 29 -39z"/>
<path d="M1410 635 c0 -88 1 -95 20 -95 16 0 20 7 20 30 0 17 4 30 10 30 5 0
16 -13 25 -30 9 -18 23 -30 36 -30 19 0 19 1 -3 39 -21 37 -22 40 -5 58 22 25
22 33 -1 33 -10 0 -25 -11 -32 -25 -21 -39 -30 -30 -30 30 0 48 -2 55 -20 55
-19 0 -20 -7 -20 -95z"/>
<path d="M1730 691 c0 -11 -6 -22 -12 -25 -10 -5 -10 -7 0 -12 7 -3 12 -24 12
-49 0 -60 31 -90 69 -66 11 7 9 11 -8 20 -30 16 -31 91 -1 91 11 0 20 5 20 10
0 6 -9 10 -20 10 -13 0 -20 7 -20 20 0 13 -7 20 -20 20 -13 0 -20 -7 -20 -19z"/>
<path d="M230 673 c-37 -13 -52 -71 -30 -113 11 -21 51 -33 85 -24 34 8 32 24
-3 24 -33 0 -52 16 -52 45 0 29 19 45 52 45 30 0 38 14 12 24 -18 7 -43 7 -64
-1z"/>
<path d="M370 673 c-39 -14 -54 -80 -26 -118 17 -23 85 -27 110 -6 25 21 22
96 -6 115 -23 16 -50 19 -78 9z m55 -68 c0 -36 -2 -40 -25 -40 -20 0 -26 6
-28 28 -5 42 5 59 30 55 20 -3 23 -9 23 -43z"/>
<path d="M698 674 c-9 -3 -22 -20 -28 -38 -21 -65 21 -114 86 -101 44 8 44 25
0 25 -36 0 -70 26 -45 34 8 3 30 7 49 8 27 2 36 8 38 24 2 11 -3 26 -11 32
-16 14 -65 22 -89 16z m60 -41 c-4 -22 -58 -31 -58 -10 0 20 10 27 37 27 18 0
24 -5 21 -17z"/>
<path d="M950 670 c-8 -6 -27 -7 -42 -4 l-28 6 0 -66 c0 -59 2 -66 20 -66 17
0 20 7 20 49 0 35 4 51 16 55 26 10 34 -3 34 -55 0 -42 3 -49 20 -49 17 0 20
7 20 49 0 35 4 51 16 55 26 10 34 -3 34 -55 0 -42 3 -49 20 -49 18 0 20 7 20
60 0 69 -19 89 -65 68 -19 -9 -28 -9 -37 0 -14 14 -28 15 -48 2z"/>
<path d="M1158 673 c-33 -8 -18 -23 22 -23 29 0 40 -4 40 -15 0 -10 -10 -15
-32 -15 -45 0 -60 -12 -56 -45 4 -40 28 -52 66 -32 18 8 32 11 32 6 0 -5 7 -9
15 -9 22 0 21 103 -1 124 -15 15 -49 19 -86 9z m60 -90 c-4 -20 -35 -30 -50
-15 -15 15 0 32 28 32 19 0 25 -5 22 -17z"/>
<path d="M1360 670 c-8 -6 -27 -7 -42 -4 l-28 6 0 -66 c0 -59 2 -66 19 -66 17
0 20 8 23 48 3 43 5 47 31 50 19 2 27 9 27 23 0 21 -8 24 -30 9z"/>
<path d="M1582 665 c-19 -14 -23 -24 -20 -63 3 -40 7 -49 31 -60 30 -14 97 -9
97 8 0 5 -19 10 -42 12 -31 2 -44 8 -46 20 -3 13 6 17 40 20 34 2 44 7 46 23
3 30 -9 42 -48 50 -25 4 -42 1 -58 -10z m73 -35 c0 -16 -28 -25 -50 -16 -9 3
-12 12 -9 21 8 21 59 16 59 -5z"/>
</g>
</svg>
